<svg width="24" height="24" viewBox="0 0 24 24" fill="none" xmlns="http://www.w3.org/2000/svg">
<path d="M12.0047 23.4449C18.3229 23.4449 23.4449 18.3229 23.4449 12.0047C23.4449 5.68641 18.3229 0.564453 12.0047 0.564453C5.68641 0.564453 0.564453 5.68641 0.564453 12.0047C0.564453 18.3229 5.68641 23.4449 12.0047 23.4449Z" fill="#83C300"/>
<path d="M12.4796 13.3389C12.4407 12.3327 12.719 11.2888 13.0715 10.2578C13.1089 10.1486 13.1778 10.1053 13.2777 10.086C13.4989 10.0432 13.7136 9.97723 13.9259 9.90281C14.84 9.58209 15.6065 9.04038 16.2653 8.33787C16.2982 8.30269 16.3303 8.26675 16.3631 8.23138C16.5073 8.07539 16.5093 8.07341 16.6571 8.22037C17.4647 9.02382 18.0385 9.96933 18.3555 11.0641C19.2471 14.1442 17.8227 17.3917 14.9556 18.8271C14.8768 18.8666 14.7958 18.9021 14.7148 18.9373C14.5313 19.0169 14.5332 19.0145 14.3957 18.8565C13.3514 17.6563 12.766 16.2567 12.5679 14.6846C12.5156 14.2694 12.4802 13.8544 12.4796 13.3389Z" fill="#FEFEFE"/>
<path d="M11.5441 13.2905C11.5084 14.6483 11.3178 15.8307 10.8339 16.9537C10.5292 17.6609 10.0938 18.285 9.601 18.8714C9.47682 19.0192 9.47183 19.0192 9.29806 18.9395C7.79249 18.2484 6.68582 17.1529 5.98783 15.6512C5.52533 14.6562 5.33218 13.6036 5.40463 12.5107C5.5147 10.8496 6.16452 9.42517 7.33592 8.24031C7.3472 8.22893 7.35859 8.21755 7.37035 8.20654C7.50592 8.07878 7.50949 8.07567 7.63189 8.21247C7.99768 8.62153 8.40354 8.9844 8.86021 9.2895C9.41341 9.65905 10.013 9.92568 10.6625 10.0674C10.8359 10.1052 10.9195 10.1836 10.9721 10.3478C11.1905 11.0288 11.4057 11.7103 11.4803 12.4254C11.5153 12.7604 11.5303 13.0975 11.5441 13.2905Z" fill="#FEFEFE"/>
<path d="M12.0111 8.98016C10.6376 8.9811 9.5311 8.44381 8.62652 7.46132C8.49772 7.32152 8.49913 7.31399 8.66114 7.21699C9.00641 7.01049 9.37003 6.84218 9.74796 6.70473C9.82331 6.67735 9.90046 6.65449 9.97497 6.62494C10.0922 6.57847 10.0959 6.56389 10.0236 6.45184C9.99755 6.41148 9.96669 6.37422 9.938 6.33555C9.63205 5.92301 9.32582 5.51075 9.02062 5.09764C8.97301 5.03319 8.92221 4.96922 8.88721 4.89791C8.78824 4.69648 8.85043 4.46636 9.02946 4.34292C9.20474 4.22212 9.41952 4.24 9.57842 4.39636C9.64089 4.4578 9.69283 4.53052 9.74542 4.60127C10.1429 5.13574 10.5437 5.66786 10.9331 6.20817C11.026 6.33715 11.1218 6.37798 11.2762 6.35644C11.7632 6.28832 12.2527 6.2872 12.7395 6.35691C12.8966 6.37939 12.9896 6.33113 13.0812 6.2045C13.4812 5.65196 13.8912 5.10677 14.2983 4.5594C14.3413 4.50164 14.3836 4.44171 14.4353 4.39222C14.6004 4.23445 14.8303 4.22354 15.0054 4.35976C15.1725 4.48978 15.2219 4.70466 15.1234 4.89998C15.0913 4.96386 15.0468 5.02209 15.004 5.08005C14.6987 5.49306 14.3923 5.90532 14.0864 6.31787C14.0577 6.35653 14.028 6.39454 14.0008 6.43424C13.9054 6.57376 13.9061 6.57715 14.0551 6.63257C14.1227 6.65778 14.1919 6.67876 14.2598 6.70322C14.6381 6.83983 15.001 7.00955 15.3472 7.21445C15.5165 7.31465 15.5179 7.31954 15.3931 7.45521C14.4762 8.45143 13.3548 8.99173 12.0111 8.98016Z" fill="#FEFEFE"/>
</svg>
