<svg width="24" height="24" viewBox="0 0 24 24" fill="none" xmlns="http://www.w3.org/2000/svg">
<path d="M12.0047 23.4449C18.3229 23.4449 23.4449 18.3229 23.4449 12.0047C23.4449 5.68641 18.3229 0.564453 12.0047 0.564453C5.68641 0.564453 0.564453 5.68641 0.564453 12.0047C0.564453 18.3229 5.68641 23.4449 12.0047 23.4449Z" fill="#5B5466"/>
<path fill-rule="evenodd" clip-rule="evenodd" d="M10.116 17.8636C10.449 17.9081 10.7904 17.9312 11.1378 17.9312C14.8371 17.9312 17.8358 15.3163 17.8358 12.0909C17.8358 8.86539 14.837 6.25069 11.1378 6.25069C10.8896 6.25069 10.6445 6.26255 10.4035 6.28541C12.2385 7.49755 13.4518 9.59743 13.4518 11.9847C13.4516 14.4946 12.1108 16.6866 10.116 17.8636ZM12.0047 19.283C16.0245 19.283 19.283 16.0245 19.283 12.0047C19.283 7.98488 16.0245 4.7263 12.0047 4.7263C7.98488 4.7263 4.7263 7.98488 4.7263 12.0047C4.7263 16.0245 7.98488 19.283 12.0047 19.283Z" fill="white"/>
</svg>
