<svg width="24" height="24" viewBox="0 0 24 24" fill="none" xmlns="http://www.w3.org/2000/svg">
<path d="M12.0047 23.4449C18.3229 23.4449 23.4449 18.3229 23.4449 12.0047C23.4449 5.68641 18.3229 0.564453 12.0047 0.564453C5.68641 0.564453 0.564453 5.68641 0.564453 12.0047C0.564453 18.3229 5.68641 23.4449 12.0047 23.4449Z" fill="#006FC9"/>
<path d="M11.9186 16.8924C13.3226 16.9074 14.3761 16.3027 15.0063 15.0444C15.789 13.4818 15.1725 11.5723 13.6419 10.7144C13.606 10.6944 13.5712 10.6705 13.5328 10.6572C13.394 10.6094 13.3504 10.5219 13.3725 10.3734C13.3967 10.2118 13.3962 10.0455 13.3955 9.88145C13.3933 9.43372 13.2129 9.05289 12.9415 8.70836C12.927 8.69002 12.9072 8.67581 12.8899 8.65972C12.8722 8.68437 12.8872 8.70639 12.898 8.72661C13.1217 9.1497 13.1438 9.60674 13.1302 10.0712C13.1245 10.2656 13.065 10.4414 12.9797 10.6126C12.8662 10.8408 12.6998 10.968 12.4338 11.0139C10.9103 11.2764 9.41124 11.6503 7.91263 12.0265C6.86871 12.2886 5.81961 12.5306 4.77287 12.7814C4.73289 12.791 4.693 12.8024 4.65236 12.8069C4.63091 12.8092 4.5945 12.8046 4.58895 12.7922C4.58095 12.7746 4.59054 12.7447 4.6008 12.7241C4.61886 12.6874 4.64267 12.6535 4.66477 12.6188C5.48121 11.3437 6.21315 10.02 6.91801 8.68108C7.00484 8.51606 7.11878 8.39075 7.27137 8.28284C8.48031 7.42849 9.67476 6.55504 10.7976 5.58742C11.723 4.79 12.558 3.90808 13.308 2.9447C13.3433 2.89925 13.3784 2.85372 13.4151 2.80941C13.4248 2.79774 13.441 2.78165 13.4523 2.78307C13.4863 2.7873 13.4782 2.8159 13.4741 2.8381C13.4624 2.90274 13.449 2.96709 13.4367 3.03163C13.2492 4.01007 12.8793 4.92039 12.4116 5.79525C12.2362 6.12321 12.2419 6.12312 12.6175 6.1329C15.6326 6.21137 18.2623 8.21594 19.1277 11.1088C20.0531 14.2023 18.7541 17.4805 15.9882 19.1195C15.5696 19.3676 15.1294 19.5673 14.6702 19.7281C14.5356 19.7753 14.4217 19.7643 14.2932 19.7074C13.7293 19.4575 13.2469 19.0889 12.7922 18.6822C12.2814 18.2254 11.8299 17.7151 11.46 17.1355C11.4291 17.0871 11.3993 17.0379 11.3701 16.9883C11.3325 16.9243 11.3242 16.8856 11.426 16.8904C11.5896 16.8982 11.7542 16.8924 11.9186 16.8924ZM9.59639 8.85955C9.58265 8.72906 9.56977 8.59848 9.55471 8.46817C9.55095 8.43581 9.54088 8.40411 9.53307 8.37231C9.51793 8.31078 9.48189 8.29243 9.42582 8.32423C9.39026 8.34446 9.35564 8.36676 9.32215 8.39028C8.54777 8.93227 7.91028 9.61182 7.34551 10.3634C7.25886 10.4787 7.27674 10.5093 7.43206 10.5131C8.0815 10.529 8.66048 10.3378 9.15449 9.91043C9.4738 9.63412 9.61276 9.27924 9.59639 8.85955Z" fill="#FEFEFE"/>
<path d="M11.5903 19.8705C10.9366 19.7974 10.2879 19.6976 9.65567 19.5094C8.64166 19.2077 7.78506 18.6419 7.00541 17.942C5.901 16.9506 5.20583 15.715 4.80928 14.2985C4.76525 14.1413 4.76685 14.1376 4.93497 14.1215C5.99131 14.0201 7.03665 13.856 8.0641 13.5854C8.66866 13.4261 9.25949 13.2268 9.83988 12.9953C9.91618 12.965 9.99295 12.9357 10.0704 12.9082C10.0838 12.9034 10.1041 12.9058 10.1166 12.9129C10.1449 12.9291 10.1335 12.9543 10.1214 12.9749C10.0923 13.0245 10.0606 13.0726 10.031 13.1218C9.93791 13.2766 9.84251 13.4303 9.75276 13.5871C9.29637 14.384 9.18357 15.235 9.33325 16.1348C9.53995 17.378 10.1227 18.404 11.0759 19.2229C11.3189 19.4318 11.5653 19.6368 11.8087 19.8452C11.8283 19.8619 11.8728 19.8675 11.8557 19.9077C11.8532 19.9135 11.8099 19.9018 11.7855 19.8983C11.7204 19.8889 11.6553 19.8798 11.5903 19.8705Z" fill="#FEFEFE"/>
</svg>
