<svg width="24" height="24" viewBox="0 0 24 24" fill="none" xmlns="http://www.w3.org/2000/svg">
<path d="M12.0047 23.4449C18.3229 23.4449 23.4449 18.3229 23.4449 12.0047C23.4449 5.68641 18.3229 0.564453 12.0047 0.564453C5.68641 0.564453 0.564453 5.68641 0.564453 12.0047C0.564453 18.3229 5.68641 23.4449 12.0047 23.4449Z" fill="#FB89EB"/>
<path fill-rule="evenodd" clip-rule="evenodd" d="M6.95856 16.9428L9.66234 16.1588L11.9976 20.4288C12.0007 20.4343 12.0086 20.4343 12.0116 20.4288L14.3469 16.1588L17.0507 16.9428C17.0567 16.9446 17.0624 16.9389 17.0606 16.9328L16.2765 14.2826L20.4287 12.0116C20.4342 12.0086 20.4342 12.0006 20.4287 11.9976L16.2423 9.70797L17.0606 6.942C17.0624 6.93598 17.0567 6.93033 17.0507 6.93203L14.2835 7.73444L12.0116 3.58049C12.0086 3.57494 12.0006 3.57494 11.9976 3.58049L9.72575 7.73444L6.95856 6.93203C6.95253 6.93024 6.94689 6.93588 6.94868 6.942L7.76699 9.70797L3.58059 11.9976C3.57504 12.0006 3.57504 12.0086 3.58059 12.0116L7.73275 14.2826L6.94868 16.9328C6.94689 16.9389 6.95253 16.9446 6.95856 16.9428ZM9.05665 12.0338L10.9721 13.0814L12.0197 14.9969C12.0227 15.0025 12.0307 15.0025 12.0337 14.9969L13.0813 13.0814L14.9968 12.0338C15.0024 12.0308 15.0024 12.0228 14.9968 12.0198L13.0813 10.9722L12.0337 9.05675C12.0307 9.0512 12.0227 9.0512 12.0197 9.05675L10.9721 10.9722L9.05665 12.0198C9.05119 12.0228 9.05119 12.0307 9.05665 12.0338Z" fill="white"/>
</svg>
