<svg width="24" height="24" viewBox="0 0 24 24" fill="none" xmlns="http://www.w3.org/2000/svg">
<path d="M12.0047 23.4449C18.3229 23.4449 23.4449 18.3229 23.4449 12.0047C23.4449 5.68641 18.3229 0.564453 12.0047 0.564453C5.68641 0.564453 0.564453 5.68641 0.564453 12.0047C0.564453 18.3229 5.68641 23.4449 12.0047 23.4449Z" fill="#E0306A"/>
<path d="M13.1276 17.3317C11.3258 17.3317 9.52395 17.3274 7.72212 17.3353C7.36329 17.3369 7.1994 17.24 7.19997 16.8205C7.2043 13.6748 7.19752 10.5291 7.19423 7.38333C7.19423 7.33827 7.19291 7.29311 7.19536 7.24823C7.20797 7.01463 7.32952 6.88997 7.56284 6.88179C7.73529 6.87577 7.90811 6.88 8.08085 6.87991C8.3661 6.87981 8.65201 6.89185 8.93661 6.87718C9.38791 6.85385 9.47578 7.04172 9.47098 7.39989C9.4596 8.24812 9.46732 9.09654 9.46732 9.94496C9.46732 10.1251 9.46478 10.3054 9.46844 10.4855C9.47465 10.7888 9.5789 10.8924 9.87544 10.8964C9.93546 10.8972 9.99567 10.8987 10.0556 10.8954C10.2691 10.8837 10.3848 10.7714 10.3903 10.5536C10.397 10.291 10.3926 10.028 10.3927 9.76527C10.3928 8.99202 10.3927 8.21867 10.3928 7.44542C10.3928 7.3854 10.3916 7.32528 10.3936 7.26526C10.4029 7.00748 10.5252 6.88602 10.7887 6.88094C11.0063 6.87671 11.2241 6.87981 11.4418 6.87981C11.7121 6.87981 11.9824 6.87765 12.2526 6.88066C12.5425 6.88386 12.6613 7.00023 12.662 7.2932C12.6647 8.31426 12.6631 9.33532 12.6637 10.3563C12.6638 10.4388 12.6604 10.5223 12.6722 10.6035C12.6976 10.78 12.8109 10.8822 12.9908 10.894C13.088 10.9003 13.1862 10.9004 13.2834 10.8941C13.4734 10.882 13.5853 10.774 13.6066 10.584C13.6149 10.5096 13.6123 10.434 13.6124 10.359C13.6127 9.38302 13.6126 8.40702 13.6127 7.43103C13.6127 7.37101 13.6117 7.31089 13.6133 7.25087C13.6208 6.96872 13.7442 6.84274 14.0316 6.8403C14.5046 6.83625 14.9776 6.83588 15.4506 6.84049C15.7354 6.84331 15.8594 6.97032 15.86 7.25792C15.8624 8.28651 15.8609 9.315 15.8613 10.3436C15.8613 10.4261 15.8578 10.5095 15.8684 10.5909C15.8934 10.7823 16.0052 10.8844 16.1979 10.8946C16.2951 10.8998 16.3934 10.9004 16.4905 10.8939C16.6689 10.8817 16.7806 10.7776 16.8046 10.5993C16.8155 10.518 16.8124 10.4345 16.8124 10.352C16.8129 9.39101 16.8127 8.42998 16.8128 7.46904C16.8128 7.40149 16.8115 7.33384 16.8137 7.26639C16.8226 7.00108 16.9365 6.88339 17.2032 6.88132C17.6986 6.87746 18.1943 6.87718 18.6897 6.8815C18.9512 6.88376 19.0719 7.00842 19.0833 7.26902C19.0853 7.31399 19.0841 7.35906 19.0841 7.40412C19.0812 10.5273 19.0781 13.6505 19.0749 16.7737C19.0749 16.8488 19.078 16.9244 19.0701 16.9988C19.0488 17.2 18.9363 17.3107 18.736 17.3286C18.6615 17.3353 18.5859 17.3315 18.5108 17.3315C16.7162 17.3317 14.9219 17.3317 13.1276 17.3317Z" fill="#FEFEFE"/>
<path d="M6.44694 13.6478C6.44694 14.6904 6.44704 15.733 6.44666 16.7756C6.44666 16.858 6.44882 16.9412 6.4396 17.0228C6.41797 17.2139 6.31457 17.3177 6.12283 17.346C6.07118 17.3536 6.01784 17.3494 5.96581 17.3551C5.68677 17.3857 5.51554 17.2799 5.38637 17.0133C5.0331 16.2849 4.64906 15.5712 4.27293 14.8538C4.205 14.7242 4.16549 14.5945 4.16624 14.447C4.16887 13.9145 4.16756 13.3819 4.16314 12.8493C4.16191 12.7027 4.19465 12.5699 4.2623 12.4399C4.65659 11.6813 5.05069 10.9227 5.43708 10.1601C5.51903 9.9984 5.63023 9.92116 5.8087 9.93029C5.91341 9.93565 6.01935 9.92615 6.1233 9.93668C6.3204 9.95663 6.43358 10.0748 6.45296 10.2726C6.45955 10.3395 6.45644 10.4076 6.45644 10.475C6.45663 11.5327 6.45654 12.5902 6.45654 13.6479C6.45334 13.6478 6.45014 13.6478 6.44694 13.6478Z" fill="#FEFEFE"/>
</svg>
