<svg width="24" height="24" viewBox="0 0 24 24" fill="none" xmlns="http://www.w3.org/2000/svg">
<path d="M12.0047 23.4449C18.3229 23.4449 23.4449 18.3229 23.4449 12.0047C23.4449 5.68641 18.3229 0.564453 12.0047 0.564453C5.68641 0.564453 0.564453 5.68641 0.564453 12.0047C0.564453 18.3229 5.68641 23.4449 12.0047 23.4449Z" fill="#FF9741"/>
<path d="M17.1736 17.4566C17.171 17.5403 17.1147 17.5972 17.0717 17.6606C16.3786 18.6824 15.4428 19.3689 14.2492 19.696C13.4417 19.9172 12.6209 20.0714 11.7812 20.011C9.66055 19.8584 7.90369 19.0168 6.68525 17.2194C6.08878 16.3395 5.79515 15.348 5.71707 14.2915C5.61085 12.8557 5.91501 11.4906 6.43453 10.1633C6.48778 10.0274 6.54366 9.89237 6.6018 9.75849C6.61704 9.7234 6.62363 9.66272 6.68102 9.67881C6.71461 9.68821 6.7068 9.73601 6.70698 9.76865C6.70755 9.85455 6.70576 9.94054 6.70614 10.0264C6.71 11.0531 6.80069 12.0685 7.1089 13.0546C7.21154 13.3829 7.33337 13.7041 7.48089 14.0152C7.49811 14.0516 7.51467 14.1035 7.56707 14.0867C7.58175 14.082 7.58786 14.0239 7.58391 13.992C7.53198 13.565 7.51382 13.1356 7.50422 12.7063C7.46678 11.0353 7.89221 9.52536 9.07302 8.2881C9.39901 7.94659 9.73968 7.61929 10.1255 7.34165C10.4326 7.12066 10.7215 6.87699 10.9821 6.60058C11.4759 6.07683 11.7201 5.45148 11.7527 4.7375C11.7729 4.29664 11.7154 3.86321 11.6321 3.43203C11.6223 3.38151 11.6122 3.33099 11.6054 3.28C11.6033 3.26448 11.6107 3.23428 11.6163 3.23362C11.6387 3.23098 11.6633 3.23418 11.6847 3.24171C11.6998 3.24707 11.7114 3.26269 11.724 3.27436C12.3689 3.87515 12.952 4.52544 13.3585 5.31685C13.7206 6.02189 13.8743 6.76945 13.8141 7.56058C13.7949 7.8129 13.7974 7.81591 13.5465 7.89108C12.8031 8.11377 12.2807 8.84224 12.3153 9.65886C12.3475 10.4179 12.8594 11.0858 13.595 11.2853C14.5226 11.537 15.4685 10.9689 15.7206 10.0113C15.8266 9.60872 15.7879 9.21075 15.6929 8.81364C15.6389 8.58775 15.5655 8.36788 15.4849 8.15018C15.4683 8.10531 15.4197 8.04622 15.4712 8.01085C15.514 7.9814 15.5653 8.03352 15.6083 8.05911C16.6111 8.65474 17.4075 9.44925 17.8531 10.5376C18.6312 12.4378 18.4287 14.2476 17.2043 15.9002C16.4073 16.9759 15.3019 17.5034 13.9526 17.4859C13.7899 17.4838 13.6275 17.4595 13.4651 17.4435C13.4234 17.4393 13.3702 17.4418 13.3526 17.3963C13.3333 17.3462 13.3848 17.3256 13.4159 17.3C13.4689 17.2563 13.5262 17.2175 13.5768 17.1711C14.2968 16.5102 14.57 15.6916 14.3536 14.7448C14.1411 13.8149 13.5531 13.1995 12.6247 12.9468C11.4177 12.6183 10.1456 13.3694 9.7965 14.6106C9.54643 15.4995 9.75172 16.3018 10.335 16.997C11.0485 17.8474 11.9789 18.2994 13.0829 18.402C14.152 18.5013 15.1679 18.278 16.1563 17.8973C16.5003 17.7649 16.8326 17.6018 17.1703 17.4527L17.1736 17.4566Z" fill="#FEFEFE"/>
</svg>
