<svg width="24" height="24" viewBox="0 0 24 24" fill="none" xmlns="http://www.w3.org/2000/svg">
<path d="M12.0047 23.4449C18.3229 23.4449 23.4449 18.3229 23.4449 12.0047C23.4449 5.68641 18.3229 0.564453 12.0047 0.564453C5.68641 0.564453 0.564453 5.68641 0.564453 12.0047C0.564453 18.3229 5.68641 23.4449 12.0047 23.4449Z" fill="#89AAE3"/>
<path d="M17.779 11.4365C17.7842 11.5225 17.7316 11.5871 17.6961 11.6577C17.0968 12.8498 15.5616 13.8895 14.0862 13.8864C13.7741 13.8857 13.4623 13.8847 13.1506 13.8665C13.1209 13.8648 13.0696 13.8736 13.0641 13.8896C13.0476 13.9386 13.0954 13.9568 13.1312 13.9676C13.4758 14.0719 13.8247 14.1586 14.1812 14.2125C14.7007 14.291 15.2181 14.2813 15.7326 14.1759C16.2628 14.0672 16.7153 13.8036 17.1337 13.4704C17.1964 13.4204 17.2422 13.3352 17.3411 13.3399C17.3054 13.4106 17.2716 13.4824 17.2336 13.5518C16.715 14.4985 15.8836 14.9702 14.8437 15.125C14.558 15.1675 14.2701 15.1754 13.982 15.1783C13.918 15.179 13.8539 15.1795 13.7901 15.1838C13.7691 15.1853 13.7355 15.1889 13.7436 15.2225C13.7483 15.242 13.7666 15.265 13.7848 15.2731C13.8357 15.2958 13.8892 15.3132 13.9426 15.3296C14.0573 15.3646 14.1732 15.3955 14.2875 15.4318C14.4097 15.4705 14.4158 15.4784 14.3606 15.601C14.1588 16.0487 13.8981 16.46 13.5773 16.8319C12.7524 17.7885 11.7187 18.3926 10.4746 18.605C7.56312 19.1022 4.92237 17.1832 4.39777 14.4154C3.86716 11.6159 5.60417 8.95984 8.37447 8.30043C8.78081 8.20372 9.19382 8.16383 9.61164 8.16496C10.4277 8.16721 11.2443 8.18292 12.0599 8.16176C13.5125 8.12403 14.9438 7.92797 16.3376 7.50131C16.7514 7.37458 17.1505 7.21079 17.5283 6.99704C18.1598 6.63972 18.6644 6.14363 19.0893 5.56268C19.2687 5.31751 19.4345 5.06236 19.6073 4.81229C19.6242 4.78793 19.6396 4.74982 19.6786 4.76441C19.7151 4.77805 19.7065 4.817 19.7055 4.84663C19.6868 5.36699 19.6385 5.88528 19.5367 6.39558C19.338 7.39208 18.9842 8.33665 18.4663 9.20812C17.6712 10.546 16.5108 11.428 15.0069 11.845C14.6198 11.9524 14.2185 11.9854 13.8199 12.0043C13.2288 12.0324 12.636 12.0403 12.0497 11.9276C12.0185 11.9216 11.9863 11.9194 11.9545 11.9174C11.9322 11.916 11.9063 11.9172 11.9036 11.9453C11.9025 11.9572 11.9167 11.9751 11.9288 11.9824C11.9558 11.9987 11.9856 12.0108 12.0148 12.0231C12.9421 12.4135 13.9007 12.6324 14.9136 12.5448C15.5542 12.4894 16.1792 12.3627 16.7766 12.1176C17.121 11.9763 17.4322 11.7849 17.6876 11.5096C17.714 11.4813 17.7497 11.4617 17.781 11.438L17.779 11.4365Z" fill="#FEFEFE"/>
</svg>
