<svg width="24" height="24" viewBox="0 0 24 24" fill="none" xmlns="http://www.w3.org/2000/svg">
<path d="M12.0047 23.4449C18.3229 23.4449 23.4449 18.3229 23.4449 12.0047C23.4449 5.68641 18.3229 0.564453 12.0047 0.564453C5.68641 0.564453 0.564453 5.68641 0.564453 12.0047C0.564453 18.3229 5.68641 23.4449 12.0047 23.4449Z" fill="#4C6AB2"/>
<path d="M18.1267 18.4107C18.0435 18.365 17.9611 18.318 17.8786 18.2709C17.8452 18.2519 17.8114 18.2336 17.7782 18.2144C17.5507 18.0825 17.3609 17.9062 17.1962 17.7036C16.9682 17.4232 16.9292 17.1179 17.0922 16.7908C17.1394 16.6962 17.2155 16.6249 17.283 16.5462C19.0423 14.4951 19.5858 12.1613 18.7913 9.57692C17.7917 6.32511 14.5518 4.14404 10.9528 4.55207C9.40588 4.72743 8.02581 5.32485 6.88659 6.38909C4.84785 8.29366 4.10452 10.6307 4.66581 13.3724C5.35815 16.002 6.95912 17.5933 9.47315 18.6258C10.168 18.8642 10.9926 19.0575 11.7167 19.1747C12.2695 19.264 12.76 19.2876 13.3174 19.2915C13.5956 19.2935 13.8901 19.2908 14.2177 19.2887C14.8151 19.2948 15.0488 19.2703 15.4615 19.2328C16.3623 19.1508 17.2185 18.8916 18.0458 18.5317C18.073 18.5199 18.0999 18.5074 18.127 18.4956C18.1927 18.4669 18.1813 18.4407 18.1267 18.4107ZM10.8319 11.032C10.7044 11.8438 10.0297 12.423 9.2085 12.4207C8.51597 12.4188 7.90953 11.9908 7.67686 11.3399C7.44561 10.6927 7.64516 9.9667 8.17465 9.53091C8.21463 9.49799 8.25565 9.46562 8.2994 9.43824C8.39301 9.37963 8.41041 9.38594 8.42321 9.49507C8.44936 9.71804 8.50553 9.93132 8.61052 10.1305C8.99625 10.8621 9.86669 11.1884 10.6462 10.8775C10.8816 10.7836 10.8613 10.8442 10.8319 11.032ZM12.7954 11.1053C12.7855 11.0546 12.7773 11.003 12.7743 10.9514C12.7664 10.8194 12.783 10.8044 12.9061 10.857C13.2672 11.0114 13.637 11.0374 14.0137 10.9332C14.6424 10.7592 15.1053 10.21 15.1808 9.56111C15.1871 9.50768 15.1558 9.42771 15.2305 9.40814C15.2897 9.39262 15.3366 9.45113 15.3834 9.48575C15.9353 9.89454 16.1684 10.6337 15.9541 11.2916C15.7313 11.9752 15.1123 12.4225 14.3912 12.4207C13.6092 12.4187 12.946 11.8723 12.7954 11.1053Z" fill="#FEFEFE"/>
</svg>
