<svg width="24" height="24" viewBox="0 0 24 24" fill="none" xmlns="http://www.w3.org/2000/svg">
<path d="M12.0047 23.4449C18.3229 23.4449 23.4449 18.3229 23.4449 12.0047C23.4449 5.68641 18.3229 0.564453 12.0047 0.564453C5.68641 0.564453 0.564453 5.68641 0.564453 12.0047C0.564453 18.3229 5.68641 23.4449 12.0047 23.4449Z" fill="#38BF4B"/>
<path d="M12.8242 15.4027C12.2297 15.4027 11.6353 15.4027 11.0408 15.4027C10.9853 15.4027 10.9298 15.4028 10.8744 15.4018C10.805 15.4007 10.7614 15.3821 10.8109 15.3035C10.8362 15.2633 10.861 15.2228 10.8861 15.1824C11.3804 14.3888 11.8768 13.5962 12.3673 12.8001C12.4477 12.6696 12.5351 12.5994 12.6997 12.5823C13.6768 12.4813 14.6522 12.3651 15.6281 12.2533C15.6829 12.247 15.7391 12.2403 15.791 12.2232C15.9107 12.1837 15.9777 12.0991 15.9754 12.0028C15.973 11.9076 15.9034 11.8188 15.7878 11.7825C15.7127 11.7588 15.6334 11.746 15.555 11.7365C14.8708 11.6534 14.1862 11.5721 13.5018 11.4902C13.1521 11.4484 13.225 11.4307 13.3585 11.2173C14.0142 10.1693 14.671 9.12194 15.3269 8.07407C15.373 8.00022 15.4173 7.92505 15.4593 7.84884C15.4941 7.78572 15.516 7.71722 15.5125 7.64412C15.5036 7.46311 15.3572 7.37722 15.1964 7.45991C15.096 7.51147 15.0217 7.5952 14.9454 7.67602C14.0916 8.58126 13.2377 9.48632 12.3835 10.3913C12.1415 10.6477 12.1716 10.6411 12.0457 10.3231C11.798 9.69697 11.5519 9.0702 11.304 8.44419C11.2749 8.37071 11.2456 8.29601 11.2053 8.22855C11.1358 8.11227 11.0233 8.05695 10.9315 8.08235C10.8372 8.10841 10.7696 8.21444 10.7693 8.34663C10.7692 8.40176 10.7786 8.45717 10.7865 8.51202C10.923 9.46063 11.0582 10.4094 11.1985 11.3575C11.2246 11.5335 11.1918 11.6665 11.0591 11.8032C10.4184 12.4625 9.79058 13.1342 9.15826 13.8016C9.12552 13.8361 9.0941 13.872 9.05976 13.9048C8.97094 13.9897 8.95928 13.9895 8.92739 13.8704C8.75531 13.2277 8.5854 12.5845 8.4169 11.9409C8.26449 11.3586 8.1149 10.7756 7.964 10.193C7.93606 10.085 7.90661 9.97846 7.81657 9.90131C7.68044 9.78455 7.52107 9.82228 7.45258 9.98927C7.41805 10.0734 7.42802 10.1604 7.43639 10.2474C7.4951 10.8546 7.55381 11.4617 7.61185 12.069C7.6826 12.8103 7.75288 13.5516 7.82278 14.293C7.84433 14.5217 7.8591 14.7511 7.88648 14.979C7.8989 15.0825 7.87632 15.1587 7.80312 15.2351C7.34805 15.7101 6.89797 16.1899 6.4445 16.6664C6.32756 16.7892 6.32172 16.7891 6.21024 16.6609C5.5528 15.9054 5.09924 15.0403 4.87495 14.0658C4.4387 12.1703 4.72856 10.3981 5.83354 8.78071C6.32859 8.05601 6.97756 7.49783 7.7271 7.04154C9.05515 6.23301 10.4933 5.71594 11.9977 5.35853C13.1476 5.08532 14.3071 4.87015 15.4847 4.76582C16.1241 4.70918 16.7659 4.68463 17.4083 4.69479C17.5839 4.69761 17.5868 4.69846 17.6323 4.87025C17.8028 5.51385 17.9447 6.16386 18.0493 6.82148C18.2976 8.3835 18.3837 9.95635 18.3409 11.536C18.3147 12.5037 18.2339 13.4663 17.9674 14.4035C17.7247 15.257 17.3538 16.0548 16.8464 16.7784C16.0221 17.9535 14.8835 18.7035 13.5076 19.076C11.9611 19.4946 10.4475 19.3692 8.98477 18.7023C8.93435 18.6793 8.88477 18.6546 8.83575 18.6287C8.79238 18.6058 8.78796 18.5682 8.80866 18.5287C8.83067 18.4867 8.85711 18.447 8.88213 18.4067C9.1958 17.902 9.51304 17.3995 9.82087 16.8913C9.89783 16.7642 9.98927 16.7071 10.1383 16.6846C11.2503 16.5171 12.3609 16.3392 13.4719 16.1642C13.8866 16.0989 14.3012 16.0336 14.7155 15.9661C14.7933 15.9534 14.8726 15.9384 14.9456 15.91C15.0623 15.8644 15.1336 15.7562 15.125 15.6554C15.115 15.5375 15.0364 15.4757 14.9364 15.433C14.8458 15.3943 14.7501 15.4004 14.6552 15.4004C14.0449 15.4003 13.4346 15.4003 12.8243 15.4003L12.8242 15.4027Z" fill="#FEFEFE"/>
</svg>
