<svg width="24" height="24" viewBox="0 0 24 24" fill="none" xmlns="http://www.w3.org/2000/svg">
<path d="M12.0047 23.4449C18.3229 23.4449 23.4449 18.3229 23.4449 12.0047C23.4449 5.68641 18.3229 0.564453 12.0047 0.564453C5.68641 0.564453 0.564453 5.68641 0.564453 12.0047C0.564453 18.3229 5.68641 23.4449 12.0047 23.4449Z" fill="#E87236"/>
<path fill-rule="evenodd" clip-rule="evenodd" d="M7.81347 16.3565C7.80942 16.3565 7.8066 16.3525 7.80792 16.3487L11.5982 6.67387C11.5991 6.67152 11.6013 6.67001 11.6038 6.67001H16.4026C16.405 6.67001 16.4073 6.67161 16.4081 6.67396L20.1421 16.3488C20.1434 16.3525 20.1406 16.3565 20.1365 16.3565H7.81347ZM3.32657 16.3984C3.32252 16.3984 3.3197 16.3944 3.32111 16.3905L6.23762 8.85532C6.23846 8.85306 6.24063 8.85156 6.24307 8.85156H8.69548C8.69952 8.85156 8.70234 8.8556 8.70093 8.85936L5.87766 16.3946C5.87682 16.3968 5.87465 16.3984 5.87221 16.3984H3.32657Z" fill="white"/>
</svg>
