<svg width="24" height="24" viewBox="0 0 24 24" fill="none" xmlns="http://www.w3.org/2000/svg">
<path d="M12.0047 23.4449C18.3229 23.4449 23.4449 18.3229 23.4449 12.0047C23.4449 5.68641 18.3229 0.564453 12.0047 0.564453C5.68641 0.564453 0.564453 5.68641 0.564453 12.0047C0.564453 18.3229 5.68641 23.4449 12.0047 23.4449Z" fill="#4CD1C0"/>
<path d="M7.52718 10.0187L11.6136 12.0069L7.52718 13.9906L3.44069 12.0074L7.52718 10.0187Z" fill="white"/>
<path d="M16.4822 10.0187L12.3958 12.0069L16.4822 13.9906L20.5687 12.0074L16.4822 10.0187Z" fill="white"/>
<path d="M16.4822 4.90412L12.3958 7.05499V11.2666L16.481 9.23381L16.4822 9.23315V4.90412Z" fill="white"/>
<path d="M16.4822 19.1052L12.3958 16.9544V12.7427L16.481 14.7755L16.4822 14.7762V19.1052Z" fill="white"/>
<path d="M7.52718 4.90412L11.6136 7.05499V11.2666L7.52831 9.23381L7.52718 9.23315V4.90412Z" fill="white"/>
<path d="M7.52718 19.1052L11.6136 16.9544V12.7427L7.52831 14.7755L7.52718 14.7762V19.1052Z" fill="white"/>
</svg>
