<svg width="24" height="24" viewBox="0 0 24 24" fill="none" xmlns="http://www.w3.org/2000/svg">
<path d="M12.0047 23.4449C18.3229 23.4449 23.4449 18.3229 23.4449 12.0047C23.4449 5.68641 18.3229 0.564453 12.0047 0.564453C5.68641 0.564453 0.564453 5.68641 0.564453 12.0047C0.564453 18.3229 5.68641 23.4449 12.0047 23.4449Z" fill="#919AA2"/>
<path fill-rule="evenodd" clip-rule="evenodd" d="M19.1821 12.032C19.1821 15.9833 15.9833 19.1821 12.032 19.1821C8.08056 19.1821 4.88182 15.9833 4.88182 12.032C4.88182 8.08056 8.08056 4.88182 12.032 4.88182C15.9833 4.88182 19.1821 8.08056 19.1821 12.032ZM16.5409 12C16.5409 14.4934 14.5184 16.5158 12.025 16.5158C9.53157 16.5158 7.52295 14.4796 7.52295 12C7.52295 9.52038 9.5454 7.48409 12.0388 7.48409C14.5322 7.48409 16.5409 9.50655 16.5409 12Z" fill="white"/>
</svg>
