<svg width="24" height="24" viewBox="0 0 24 24" fill="none" xmlns="http://www.w3.org/2000/svg">
<path d="M12.0047 23.4449C18.3229 23.4449 23.4449 18.3229 23.4449 12.0047C23.4449 5.68641 18.3229 0.564453 12.0047 0.564453C5.68641 0.564453 0.564453 5.68641 0.564453 12.0047C0.564453 18.3229 5.68641 23.4449 12.0047 23.4449Z" fill="#B567CE"/>
<path d="M12.0825 4.58678C13.9282 4.61604 15.7006 5.13076 17.2439 6.32511C18.2525 7.1057 19.0165 8.07868 19.4185 9.29862C20.0267 11.1443 19.722 12.8612 18.6161 14.4442C18.2525 14.9646 17.8116 15.4164 17.3109 15.8057C17.1643 15.9197 17.1317 16.025 17.1801 16.2071C17.3645 16.9 17.3161 17.5827 17.0268 18.2423C16.8689 18.6023 16.6446 18.9127 16.319 19.1421C15.7879 19.5164 15.1477 19.5166 14.6185 19.1403C14.2454 18.8749 14.0116 18.5063 13.8456 18.0877C13.8175 18.0168 13.8156 17.8901 13.7466 17.8905C13.6501 17.8912 13.6648 18.0223 13.6354 18.0962C13.4858 18.4712 13.2664 18.7915 12.9361 19.0296C12.3159 19.4766 11.4989 19.4303 10.9309 18.9177C10.6678 18.6803 10.4782 18.3944 10.3576 18.0619C10.3389 18.0101 10.3223 17.9572 10.2988 17.9077C10.2813 17.8707 10.2487 17.8673 10.2304 17.9061C10.2004 17.97 10.1769 18.037 10.1519 18.1033C10.0277 18.4326 9.8458 18.7244 9.59169 18.97C8.96483 19.5758 8.09948 19.5742 7.47497 18.9623C7.01981 18.5163 6.80323 17.9577 6.74264 17.3362C6.70341 16.9343 6.71574 16.5304 6.84246 16.1418C6.88734 16.0039 6.84877 15.9271 6.74048 15.8434C6.07843 15.3317 5.52684 14.7192 5.09783 13.9996C4.52591 13.0404 4.24169 12.0013 4.28798 10.885C4.34424 9.52733 4.8488 8.34004 5.72845 7.31211C6.76089 6.10562 8.07511 5.34648 9.59056 4.9171C10.3763 4.69413 11.1807 4.5976 12.0825 4.58678ZM11.9965 14.6293C12.6003 14.6319 13.1921 14.55 13.7692 14.3721C14.5991 14.1163 15.3328 13.7026 15.914 13.0447C16.9004 11.9284 16.9338 10.4654 15.9992 9.3053C15.6989 8.93256 15.3343 8.6331 14.924 8.38924C14.1781 7.94593 13.3684 7.71261 12.5054 7.64252C11.4106 7.55352 10.3664 7.7303 9.38368 8.22356C8.66377 8.58493 8.06166 9.08487 7.67432 9.8061C7.22979 10.6337 7.20618 11.4786 7.61496 12.3272C7.94462 13.0115 8.47542 13.5077 9.12242 13.8853C10.0095 14.4032 10.9753 14.6252 11.9965 14.6293Z" fill="#FEFEFE"/>
</svg>
