<svg width="24" height="24" viewBox="0 0 24 24" fill="none" xmlns="http://www.w3.org/2000/svg">
<path d="M0.0927734 10.5C0.830921 4.58053 5.88051 0 11.9999 0C18.1194 0 23.1689 4.58053 23.9071 10.5H18.8389C18.1522 7.35482 15.3511 5 12 5C8.64888 5 5.84776 7.35482 5.16109 10.5H0.0927734Z" fill="white"/>
<path d="M16 12C16 14.2091 14.2091 16 12 16C9.79086 16 8 14.2091 8 12C8 9.79086 9.79086 8 12 8C14.2091 8 16 9.79086 16 12Z" fill="white"/>
<path d="M5.16109 13.5H0.0927734C0.830921 19.4195 5.88051 24 11.9999 24C18.1194 24 23.1689 19.4195 23.9071 13.5H18.8389C18.1522 16.6452 15.3511 19 12 19C8.64888 19 5.84776 16.6452 5.16109 13.5Z" fill="white"/>
</svg>
