<svg width="24" height="24" viewBox="0 0 24 24" fill="none" xmlns="http://www.w3.org/2000/svg">
<path d="M12.0047 23.4449C18.3229 23.4449 23.4449 18.3229 23.4449 12.0047C23.4449 5.68641 18.3229 0.564453 12.0047 0.564453C5.68641 0.564453 0.564453 5.68641 0.564453 12.0047C0.564453 18.3229 5.68641 23.4449 12.0047 23.4449Z" fill="#FF6675"/>
<path d="M17.7348 17.2597C17.6664 17.361 17.5599 17.4182 17.4641 17.4855C16.4716 18.1834 15.3692 18.6073 14.1758 18.8093C13.5333 18.9182 12.887 18.9534 12.2384 18.9215C10.7407 18.848 9.33739 18.466 8.08828 17.6061C6.6861 16.6407 5.80993 15.3191 5.42852 13.664C5.27075 12.9794 5.21929 12.285 5.26463 11.5865C5.34338 10.3713 5.65178 9.21876 6.31203 8.18537C7.16619 6.84858 8.36384 5.94568 9.87271 5.45571C10.7363 5.17535 11.622 5.04194 12.529 5.08428C13.9179 5.1491 15.1799 5.57773 16.2788 6.44431C17.1419 7.12508 17.7239 8.00643 18.0673 9.04264C18.5739 10.5714 18.4795 12.0605 17.7396 13.5025C17.4957 13.9778 17.1404 14.3566 16.7527 14.7099C16.0419 15.3575 15.225 15.8128 14.2727 15.9796C12.8746 16.2245 11.6101 15.9271 10.5407 14.9617C9.86217 14.3494 9.47851 13.5761 9.35818 12.6698C9.2816 12.0935 9.31566 11.5237 9.50937 10.9775C9.90912 9.85032 10.7268 9.1815 11.882 8.93604C12.5998 8.78354 13.3 8.86558 13.9362 9.26467C14.6127 9.68888 14.9848 10.3213 15.0909 11.0964C15.2215 12.0505 14.5215 12.9905 13.563 13.2019C13.2797 13.2644 12.9975 13.2701 12.7139 13.2019C12.1672 13.0704 11.7236 12.5954 11.637 12.0443C11.6039 11.8333 11.639 11.6266 11.6903 11.4237C11.7229 11.2946 11.8132 11.2441 11.9225 11.2704C12.0273 11.2956 12.0911 11.3869 12.0721 11.5096C12.057 11.6071 12.0476 11.7035 12.0594 11.8007C12.1248 12.3346 12.5822 12.6554 13.1341 12.5557C13.1479 12.5533 13.1612 12.5491 13.1749 12.5463C14.1359 12.3449 14.23 11.3522 13.8941 10.7857C13.6554 10.3831 13.2887 10.1583 12.8379 10.0669C11.9238 9.88146 11.1641 10.4537 10.8798 11.1219C10.5228 11.9608 10.6661 12.737 11.256 13.4206C12.0633 14.356 13.4431 14.5814 14.5352 13.9659C15.4642 13.4423 16.0285 12.6501 16.1661 11.593C16.3031 10.5396 16.0304 9.60298 15.3108 8.78852C14.6638 8.05629 13.8607 7.6398 12.9186 7.48936C10.5867 7.11699 8.62868 8.31558 7.78901 10.3694C7.44223 11.2176 7.33686 12.1033 7.43583 13.0149C7.58692 14.4067 8.15574 15.5976 9.16259 16.569C10.0485 17.4238 11.1043 17.9654 12.3175 18.1847C14.143 18.5146 15.865 18.1885 17.5017 17.3443C17.5747 17.3067 17.641 17.248 17.7321 17.257L17.7348 17.2597Z" fill="#FEFEFE"/>
</svg>
