<svg width="24" height="24" viewBox="0 0 24 24" fill="none" xmlns="http://www.w3.org/2000/svg">
<path d="M12.0047 23.4449C18.3229 23.4449 23.4449 18.3229 23.4449 12.0047C23.4449 5.68641 18.3229 0.564453 12.0047 0.564453C5.68641 0.564453 0.564453 5.68641 0.564453 12.0047C0.564453 18.3229 5.68641 23.4449 12.0047 23.4449Z" fill="#C8B686"/>
<path fill-rule="evenodd" clip-rule="evenodd" d="M16.3323 11.6698L16.3313 11.6654L17.3438 5.76129C17.3442 5.75856 17.3466 5.75658 17.3493 5.75658H17.6697C17.6722 5.75658 17.6744 5.75818 17.6751 5.76053L19.9563 12.9832C19.957 12.9855 19.9562 12.9879 19.9544 12.9894L18.2724 14.3026C18.2699 14.3046 18.2663 14.304 18.2644 14.3015L16.3323 11.6698ZM4.05269 15.5838C4.05269 15.5862 4.05428 15.5884 4.05654 15.5892L7.5237 16.7228L7.52869 16.7221L15.2785 11.3718L15.2808 11.3679L16.112 5.79158C16.1125 5.78819 16.1098 5.78509 16.1064 5.78509H9.24199L9.23766 5.78716L4.054 12.0404L4.05269 12.0441V15.5838ZM8.9685 17.0117L12.7563 18.2524L12.7614 18.2516L17.2709 15.0169C17.2735 15.0151 17.274 15.0117 17.2724 15.0091L15.5818 12.4935C15.58 12.4909 15.5765 12.4902 15.5739 12.492L8.9685 17.0117Z" fill="white"/>
</svg>
