<svg width="24" height="24" viewBox="0 0 24 24" fill="none" xmlns="http://www.w3.org/2000/svg">
<path d="M12.0047 23.4449C18.3229 23.4449 23.4449 18.3229 23.4449 12.0047C23.4449 5.68641 18.3229 0.564453 12.0047 0.564453C5.68641 0.564453 0.564453 5.68641 0.564453 12.0047C0.564453 18.3229 5.68641 23.4449 12.0047 23.4449Z" fill="#5A8EA2"/>
<path fill-rule="evenodd" clip-rule="evenodd" d="M4.17113 12.0032C4.16906 11.9996 4.16906 11.9952 4.17113 11.9916L8.11152 5.25937C8.11359 5.25588 8.11735 5.25381 8.1213 5.25381H15.9312C15.9354 5.25381 15.939 5.25588 15.9412 5.25955L19.8383 11.9918C19.8403 11.9953 19.8403 11.9998 19.8383 12.0033L15.9412 18.7281C15.9391 18.7315 15.9354 18.7338 15.9312 18.7338H8.1213C8.11716 18.7338 8.11349 18.7317 8.11152 18.7283L4.17113 12.0032ZM15.635 11.9936C15.635 13.9979 14.0102 15.6226 12.0059 15.6226C10.0016 15.6226 8.37682 13.9979 8.37682 11.9936C8.37682 9.98928 10.0016 8.3645 12.0059 8.3645C14.0102 8.3645 15.635 9.98928 15.635 11.9936Z" fill="white"/>
</svg>
