<svg width="24" height="24" viewBox="0 0 24 24" fill="none" xmlns="http://www.w3.org/2000/svg">
<path d="M12.0047 23.4449C18.3229 23.4449 23.4449 18.3229 23.4449 12.0047C23.4449 5.68641 18.3229 0.564453 12.0047 0.564453C5.68641 0.564453 0.564453 5.68641 0.564453 12.0047C0.564453 18.3229 5.68641 23.4449 12.0047 23.4449Z" fill="#3692DC"/>
<path d="M12.0547 19.8348C9.30437 19.8032 7.18388 17.9454 6.65618 15.5257C6.41759 14.4317 6.52136 13.3624 6.92093 12.3138C7.53264 10.7085 8.339 9.20417 9.2513 7.7542C10.0491 6.48627 10.8611 5.22728 11.6662 3.96387C11.7588 3.81842 11.8476 3.67034 11.9372 3.52292C11.9838 3.44633 12.0287 3.44709 12.0748 3.52254C12.087 3.54258 12.0995 3.56262 12.1116 3.58266C12.9734 5.00506 13.9123 6.37864 14.7865 7.79305C15.5794 9.07556 16.3155 10.3877 16.8798 11.7898C17.1025 12.3429 17.3275 12.8947 17.4135 13.4911C17.6507 15.1356 17.2553 16.6097 16.1877 17.8818C15.1957 19.0636 13.9092 19.6957 12.3705 19.813C12.2454 19.8225 12.1203 19.8303 12.0547 19.8348ZM11.7033 18.1086C12.2665 18.1114 12.7987 17.9908 13.2831 17.7081C14.2308 17.155 14.7752 16.3438 14.8207 15.2285C14.8241 15.1458 14.8567 15.0047 14.7921 14.9907C14.6882 14.9682 14.6812 15.1126 14.6384 15.1865C14.0925 16.1293 13.2767 16.6537 12.1908 16.6967C10.5016 16.7635 9.16842 15.3834 9.20605 13.7709C9.20756 13.7082 9.21076 13.6454 9.20944 13.5829C9.20897 13.5621 9.20267 13.5319 9.18836 13.5229C9.1528 13.5004 9.13286 13.5343 9.11451 13.5579C9.09043 13.5887 9.06766 13.6209 9.04753 13.6545C8.47636 14.6088 8.42292 15.589 8.97791 16.5571C9.57485 17.5987 10.5205 18.0746 11.7033 18.1086Z" fill="#FEFEFE"/>
</svg>
